<?xml version="1.0" encoding="utf-8"?>
<svg viewBox="100 100 290.632 213.31" xmlns="http://www.w3.org/2000/svg">
    <path d="M -19.369 112.789 Q -18.289 112.789 -17.809 112.309 Q -17.329 111.829 -16.309 110.269 L -8.989 99.109 Q -8.629 98.509 -8.179 98.299 Q -7.729 98.089 -7.249 98.089 L -6.229 98.089 Q -5.389 98.089 -4.999 98.539 Q -4.609 98.989 -4.609 99.949 L -4.609 130.489 L -5.209 130.489 L -5.209 99.949 Q -5.209 99.469 -5.419 99.079 Q -5.629 98.689 -6.229 98.689 L -7.129 98.689 Q -7.549 98.689 -7.849 98.809 Q -8.149 98.929 -8.509 99.529 L -15.829 110.569 Q -16.909 112.189 -17.479 112.789 Q -18.049 113.389 -19.369 113.389 Q -20.689 113.389 -21.259 112.789 Q -21.829 112.189 -22.909 110.569 L -30.229 99.529 Q -30.589 98.929 -30.919 98.809 Q -31.249 98.689 -31.669 98.689 L -32.569 98.689 Q -33.169 98.689 -33.349 99.079 Q -33.529 99.469 -33.529 99.949 L -33.529 130.489 L -34.129 130.489 L -34.129 99.949 Q -34.129 98.989 -33.739 98.539 Q -33.349 98.089 -32.569 98.089 L -31.549 98.089 Q -31.069 98.089 -30.589 98.299 Q -30.109 98.509 -29.749 99.109 L -22.429 110.269 Q -21.409 111.829 -20.929 112.309 Q -20.449 112.789 -19.369 112.789 Z M -29.389 135.889 Q -28.249 135.889 -27.739 135.379 Q -27.229 134.869 -27.229 133.729 L -27.229 112.609 L -23.689 119.149 Q -23.149 120.169 -22.399 120.619 Q -21.649 121.069 -20.509 121.069 L -18.109 121.069 Q -16.969 121.069 -16.219 120.619 Q -15.469 120.169 -14.929 119.149 L -11.389 112.609 L -11.389 133.729 Q -11.389 134.869 -10.879 135.379 Q -10.369 135.889 -9.229 135.889 L 0.011 135.889 Q 1.151 135.889 1.661 135.379 Q 2.171 134.869 2.171 133.729 L 2.171 94.849 Q 2.171 93.709 1.661 93.199 Q 1.151 92.689 0.011 92.689 L -9.709 92.689 Q -10.669 92.689 -11.299 93.109 Q -11.929 93.529 -12.469 94.489 L -17.809 104.269 Q -18.109 104.809 -18.319 105.049 Q -18.529 105.289 -18.889 105.289 L -19.429 105.289 Q -19.789 105.289 -19.999 105.049 Q -20.209 104.809 -20.509 104.269 L -25.909 94.489 Q -26.449 93.529 -27.079 93.109 Q -27.709 92.689 -28.669 92.689 L -38.329 92.689 Q -39.469 92.689 -39.979 93.199 Q -40.489 93.709 -40.489 94.849 L -40.489 133.729 Q -40.489 134.869 -39.979 135.379 Q -39.469 135.889 -38.329 135.889 Z M -27.469 135.949 L -35.269 142.429 Q -35.509 142.669 -36.019 142.849 Q -36.529 143.029 -37.129 143.029 L -46.069 143.029 Q -47.509 143.029 -48.169 142.369 Q -48.829 141.709 -48.829 140.269 L -48.829 101.389 Q -48.829 100.609 -48.619 100.069 Q -48.409 99.529 -47.989 99.169 L -40.249 92.629 Q -39.949 92.389 -39.439 92.239 Q -38.929 92.089 -38.329 92.089 L -28.669 92.089 Q -27.529 92.089 -26.779 92.569 Q -26.029 93.049 -25.369 94.189 L -21.289 101.689 L -20.749 100.729 Q -20.509 100.309 -20.239 99.919 Q -19.969 99.529 -19.669 99.289 L -11.929 92.809 Q -11.449 92.449 -10.939 92.269 Q -10.429 92.089 -9.709 92.089 L 0.011 92.089 Q 1.451 92.089 2.111 92.749 Q 2.771 93.409 2.771 94.849 L 2.771 133.729 Q 2.771 134.509 2.561 135.049 Q 2.351 135.589 1.931 135.949 L -5.869 142.429 Q -6.109 142.669 -6.619 142.849 Q -7.129 143.029 -7.729 143.029 L -16.969 143.029 Q -18.469 143.029 -19.099 142.369 Q -19.729 141.709 -19.729 140.269 L -19.729 124.429 L -23.269 127.369 Q -23.749 127.789 -24.379 127.999 Q -25.009 128.209 -25.849 128.209 L -26.629 128.209 L -26.629 133.729 Q -26.629 134.509 -26.839 135.049 Q -27.049 135.589 -27.469 135.949 Z" transform="matrix(1, 0, 0, 1, 151.529404, 62.543045)" style="fill: rgb(51, 51, 51); white-space: pre;"/>
    <path d="M 42.296 140.149 Q 40.196 141.949 36.416 142.939 Q 32.636 143.929 26.696 143.929 Q 20.816 143.929 17.066 142.699 Q 13.316 141.469 11.186 139.429 Q 9.056 137.389 8.246 134.749 Q 7.436 132.109 7.436 129.289 L 7.436 110.629 Q 7.436 107.869 8.216 105.499 Q 8.996 103.129 11.036 101.449 L 18.836 94.969 Q 20.936 93.169 24.686 92.179 Q 28.436 91.189 34.436 91.189 Q 40.316 91.189 44.066 92.149 Q 47.816 93.109 49.946 94.819 Q 52.076 96.529 52.856 98.899 Q 53.636 101.269 53.636 104.089 L 53.636 124.549 Q 53.636 127.309 52.856 129.649 Q 52.076 131.989 50.036 133.669 Z M 53.036 124.549 L 53.036 104.089 Q 53.036 101.329 52.226 99.079 Q 51.416 96.829 49.346 95.209 Q 47.276 93.589 43.646 92.689 Q 40.016 91.789 34.436 91.789 Q 28.856 91.789 25.196 92.689 Q 21.536 93.589 19.466 95.209 Q 17.396 96.829 16.586 99.079 Q 15.776 101.329 15.776 104.089 L 15.776 124.549 Q 15.776 127.309 16.586 129.559 Q 17.396 131.809 19.466 133.399 Q 21.536 134.989 25.196 135.889 Q 28.856 136.789 34.436 136.789 Q 40.016 136.789 43.646 135.889 Q 47.276 134.989 49.346 133.399 Q 51.416 131.809 52.226 129.559 Q 53.036 127.309 53.036 124.549 Z M 46.496 123.169 Q 46.496 126.769 43.916 129.019 Q 41.336 131.269 34.316 131.269 Q 27.296 131.269 24.776 129.019 Q 22.256 126.769 22.256 123.169 L 22.256 105.469 Q 22.256 101.869 24.776 99.619 Q 27.296 97.369 34.316 97.369 Q 41.336 97.369 43.916 99.619 Q 46.496 101.869 46.496 105.469 Z M 22.856 123.169 Q 22.856 126.529 25.256 128.599 Q 27.656 130.669 34.316 130.669 Q 40.976 130.669 43.436 128.599 Q 45.896 126.529 45.896 123.169 L 45.896 105.469 Q 45.896 102.109 43.436 100.039 Q 40.976 97.969 34.316 97.969 Q 27.656 97.969 25.256 100.039 Q 22.856 102.109 22.856 105.469 Z M 29.396 122.389 L 29.396 106.249 Q 29.396 105.109 30.296 104.299 Q 31.196 103.489 34.436 103.489 Q 37.676 103.489 38.576 104.299 Q 39.476 105.109 39.476 106.249 L 39.476 122.389 Q 39.476 123.589 38.576 124.399 Q 37.676 125.209 34.436 125.209 Q 31.196 125.209 30.296 124.399 Q 29.396 123.589 29.396 122.389 Z M 29.996 122.389 Q 29.996 122.989 30.236 123.439 Q 30.476 123.889 31.136 124.189 L 31.136 112.789 Q 31.136 112.189 30.896 111.739 Q 30.656 111.289 29.996 111.049 Z" transform="matrix(1, 0, 0, 1, 151.529404, 62.543045)" style="fill: rgb(51, 51, 51); white-space: pre;"/>
    <path d="M 68.878 143.029 Q 67.498 143.029 66.658 142.519 Q 65.818 142.009 65.278 140.689 L 59.398 125.989 Q 58.858 124.609 58.468 123.619 Q 58.078 122.629 57.838 121.699 Q 57.598 120.769 57.508 119.719 Q 57.418 118.669 57.418 117.229 L 57.418 101.389 Q 57.418 100.609 57.628 100.069 Q 57.838 99.529 58.258 99.169 L 65.998 92.629 Q 66.298 92.389 66.808 92.239 Q 67.318 92.089 67.918 92.089 L 77.458 92.089 Q 78.898 92.089 79.648 92.779 Q 80.398 93.469 80.398 94.849 L 80.398 111.409 Q 80.398 112.009 80.518 112.549 Q 80.638 113.089 80.818 113.689 L 80.998 114.109 L 80.998 101.389 Q 80.998 100.609 81.208 100.069 Q 81.418 99.529 81.838 99.169 L 89.578 92.629 Q 89.878 92.389 90.388 92.239 Q 90.898 92.089 91.498 92.089 L 100.918 92.089 Q 102.418 92.089 103.048 92.749 Q 103.678 93.409 103.678 94.849 L 103.678 110.689 Q 103.678 112.129 103.588 113.179 Q 103.498 114.229 103.258 115.159 Q 103.018 116.089 102.628 117.079 Q 102.238 118.069 101.698 119.449 L 95.818 134.149 Q 95.638 134.689 95.338 135.109 Q 95.038 135.529 94.738 135.769 L 86.998 142.189 Q 86.518 142.609 85.888 142.819 Q 85.258 143.029 84.478 143.029 Z M 92.218 135.889 Q 93.358 135.889 94.108 135.469 Q 94.858 135.049 95.278 133.909 L 101.158 119.209 Q 101.698 117.889 102.058 116.899 Q 102.418 115.909 102.658 115.009 Q 102.898 114.109 102.988 113.119 Q 103.078 112.129 103.078 110.689 L 103.078 94.849 Q 103.078 93.709 102.568 93.199 Q 102.058 92.689 100.918 92.689 L 91.498 92.689 Q 90.358 92.689 89.848 93.199 Q 89.338 93.709 89.338 94.849 L 89.338 111.349 Q 89.338 111.949 89.218 112.549 Q 89.098 113.149 88.858 113.809 L 86.038 122.269 Q 85.858 122.869 85.618 123.079 Q 85.378 123.289 84.898 123.289 L 84.238 123.289 Q 83.758 123.289 83.518 123.079 Q 83.278 122.869 83.098 122.269 L 80.278 113.869 Q 80.038 113.209 79.918 112.609 Q 79.798 112.009 79.798 111.409 L 79.798 94.849 Q 79.798 93.709 79.198 93.199 Q 78.598 92.689 77.458 92.689 L 67.918 92.689 Q 66.778 92.689 66.268 93.199 Q 65.758 93.709 65.758 94.849 L 65.758 110.689 Q 65.758 112.129 65.848 113.119 Q 65.938 114.109 66.178 115.009 Q 66.418 115.909 66.778 116.899 Q 67.138 117.889 67.678 119.209 L 73.558 133.909 Q 73.978 135.049 74.728 135.469 Q 75.478 135.889 76.618 135.889 Z M 72.538 98.089 L 73.138 98.089 L 73.138 111.049 Q 73.138 112.609 73.378 114.019 Q 73.618 115.429 74.098 116.629 L 78.058 126.229 Q 78.658 127.789 79.408 128.839 Q 80.158 129.889 81.838 129.889 L 87.118 129.889 Q 88.798 129.889 89.548 128.839 Q 90.298 127.789 90.898 126.229 L 94.858 116.629 Q 95.338 115.429 95.578 114.019 Q 95.818 112.609 95.818 111.049 L 95.818 98.089 L 96.418 98.089 L 96.418 111.049 Q 96.418 112.729 96.208 114.139 Q 95.998 115.549 95.458 116.869 L 91.498 126.469 Q 90.778 128.209 89.878 129.349 Q 88.978 130.489 87.118 130.489 L 81.838 130.489 Q 79.978 130.489 79.078 129.349 Q 78.178 128.209 77.458 126.469 L 73.498 116.869 Q 72.958 115.549 72.748 114.139 Q 72.538 112.729 72.538 111.049 Z" transform="matrix(1, 0, 0, 1, 151.529404, 62.543045)" style="fill: rgb(51, 51, 51); white-space: pre;"/>
    <path d="M 135.462 143.029 L 109.902 143.029 Q 108.462 143.029 107.802 142.369 Q 107.142 141.709 107.142 140.269 L 107.142 133.129 Q 107.142 132.349 107.352 131.809 Q 107.562 131.269 107.982 130.909 L 115.242 124.789 L 115.242 111.409 L 109.902 111.409 Q 108.462 111.409 107.802 110.749 Q 107.142 110.089 107.142 108.649 L 107.142 101.389 Q 107.142 100.609 107.352 100.069 Q 107.562 99.529 107.982 99.169 L 115.722 92.629 Q 116.022 92.389 116.532 92.239 Q 117.042 92.089 117.642 92.089 L 143.202 92.089 Q 144.642 92.089 145.302 92.749 Q 145.962 93.409 145.962 94.849 L 145.962 102.109 Q 145.962 102.889 145.752 103.429 Q 145.542 103.969 145.122 104.329 L 137.982 110.329 L 137.982 123.829 L 143.202 123.829 Q 144.642 123.829 145.302 124.489 Q 145.962 125.149 145.962 126.589 L 145.962 133.729 Q 145.962 134.509 145.752 135.049 Q 145.542 135.589 145.122 135.949 L 137.322 142.429 Q 137.082 142.669 136.572 142.849 Q 136.062 143.029 135.462 143.029 Z M 117.642 135.889 L 143.202 135.889 Q 144.342 135.889 144.852 135.379 Q 145.362 134.869 145.362 133.729 L 145.362 126.589 Q 145.362 125.449 144.852 124.939 Q 144.342 124.429 143.202 124.429 L 137.382 124.429 L 137.382 104.269 L 143.202 104.269 Q 144.342 104.269 144.852 103.759 Q 145.362 103.249 145.362 102.109 L 145.362 94.849 Q 145.362 93.709 144.852 93.199 Q 144.342 92.689 143.202 92.689 L 117.642 92.689 Q 116.502 92.689 115.992 93.199 Q 115.482 93.709 115.482 94.849 L 115.482 102.109 Q 115.482 103.249 115.992 103.759 Q 116.502 104.269 117.642 104.269 L 123.582 104.269 L 123.582 124.429 L 117.642 124.429 Q 116.502 124.429 115.992 124.939 Q 115.482 125.449 115.482 126.589 L 115.482 133.729 Q 115.482 134.869 115.992 135.379 Q 116.502 135.889 117.642 135.889 Z M 139.962 130.489 L 120.882 130.489 L 120.882 129.889 L 130.182 129.889 L 130.182 98.689 L 120.882 98.689 L 120.882 98.089 L 139.962 98.089 L 139.962 98.689 L 130.782 98.689 L 130.782 129.889 L 139.962 129.889 Z" transform="matrix(1, 0, 0, 1, 151.529404, 62.543045)" style="fill: rgb(51, 51, 51); white-space: pre;"/>
    <path d="M 181.002 143.029 L 153.162 143.029 Q 151.722 143.029 151.062 142.369 Q 150.402 141.709 150.402 140.269 L 150.402 101.389 Q 150.402 100.609 150.612 100.069 Q 150.822 99.529 151.242 99.169 L 158.982 92.629 Q 159.282 92.389 159.792 92.239 Q 160.302 92.089 160.902 92.089 L 188.742 92.089 Q 190.182 92.089 190.842 92.749 Q 191.502 93.409 191.502 94.849 L 191.502 101.869 Q 191.502 102.649 191.292 103.189 Q 191.082 103.729 190.662 104.089 L 185.502 108.349 Q 186.102 108.649 186.372 109.249 Q 186.642 109.849 186.642 110.809 L 186.642 117.229 Q 186.642 118.009 186.432 118.549 Q 186.222 119.089 185.802 119.449 L 180.462 123.949 L 188.742 123.949 Q 190.182 123.949 190.842 124.609 Q 191.502 125.269 191.502 126.709 L 191.502 133.729 Q 191.502 134.509 191.292 135.049 Q 191.082 135.589 190.662 135.949 L 182.862 142.429 Q 182.622 142.669 182.112 142.849 Q 181.602 143.029 181.002 143.029 Z M 188.742 135.889 Q 189.882 135.889 190.392 135.379 Q 190.902 134.869 190.902 133.729 L 190.902 126.709 Q 190.902 125.569 190.392 125.059 Q 189.882 124.549 188.742 124.549 L 172.182 124.549 L 172.182 119.389 L 183.882 119.389 Q 185.022 119.389 185.532 118.879 Q 186.042 118.369 186.042 117.229 L 186.042 110.809 Q 186.042 109.669 185.532 109.159 Q 185.022 108.649 183.882 108.649 L 172.182 108.649 L 172.182 104.029 L 188.742 104.029 Q 189.882 104.029 190.392 103.519 Q 190.902 103.009 190.902 101.869 L 190.902 94.849 Q 190.902 93.709 190.392 93.199 Q 189.882 92.689 188.742 92.689 L 160.902 92.689 Q 159.762 92.689 159.252 93.199 Q 158.742 93.709 158.742 94.849 L 158.742 133.729 Q 158.742 134.869 159.252 135.379 Q 159.762 135.889 160.902 135.889 Z M 185.502 129.889 L 185.502 130.489 L 165.282 130.489 L 165.282 98.089 L 185.502 98.089 L 185.502 98.689 L 165.882 98.689 L 165.882 113.749 L 180.642 113.749 L 180.642 114.349 L 165.882 114.349 L 165.882 129.889 Z" transform="matrix(1, 0, 0, 1, 151.529404, 62.543045)" style="fill: rgb(51, 51, 51); white-space: pre;"/>
    <path d="M 197.319 143.029 Q 195.879 143.029 195.219 142.369 Q 194.559 141.709 194.559 140.269 L 194.559 133.249 Q 194.559 132.469 194.769 131.929 Q 194.979 131.389 195.399 131.029 L 201.399 125.989 Q 198.219 125.029 196.389 122.719 Q 194.559 120.409 194.559 116.089 L 194.559 109.789 Q 194.559 107.089 195.459 104.989 Q 196.359 102.889 198.039 101.449 L 205.839 94.909 Q 207.459 93.589 209.859 92.839 Q 212.259 92.089 215.319 92.089 L 232.119 92.089 Q 233.559 92.089 234.219 92.749 Q 234.879 93.409 234.879 94.849 L 234.879 101.989 Q 234.879 102.769 234.669 103.309 Q 234.459 103.849 234.039 104.209 L 228.639 108.709 Q 232.419 109.549 234.729 111.859 Q 237.039 114.169 237.039 119.029 L 237.039 125.329 Q 237.039 128.029 236.139 130.129 Q 235.239 132.229 233.499 133.669 L 225.759 140.149 Q 224.079 141.529 221.679 142.279 Q 219.279 143.029 216.279 143.029 Z M 224.019 135.889 Q 229.779 135.889 233.109 133.159 Q 236.439 130.429 236.439 125.329 L 236.439 119.029 Q 236.439 113.989 233.859 111.829 Q 231.279 109.669 227.079 109.069 L 218.139 107.869 Q 217.359 107.809 216.939 107.269 Q 216.519 106.729 216.519 105.949 Q 216.519 105.169 216.939 104.659 Q 217.359 104.149 218.139 104.149 L 232.119 104.149 Q 233.259 104.149 233.769 103.639 Q 234.279 103.129 234.279 101.989 L 234.279 94.849 Q 234.279 93.709 233.769 93.199 Q 233.259 92.689 232.119 92.689 L 215.319 92.689 Q 209.499 92.689 206.199 95.419 Q 202.899 98.149 202.899 103.249 L 202.899 109.549 Q 202.899 114.589 205.449 116.749 Q 207.999 118.909 212.199 119.509 L 221.199 120.769 Q 221.979 120.829 222.369 121.309 Q 222.759 121.789 222.759 122.809 Q 222.759 123.529 222.369 124.039 Q 221.979 124.549 221.199 124.549 L 205.059 124.549 Q 203.919 124.549 203.409 125.059 Q 202.899 125.569 202.899 126.709 L 202.899 133.729 Q 202.899 134.869 203.409 135.379 Q 203.919 135.889 205.059 135.889 Z M 228.879 98.089 L 228.879 98.689 L 215.559 98.689 Q 213.039 98.689 211.539 100.069 Q 210.039 101.449 210.039 103.549 L 210.039 108.469 Q 210.039 110.569 210.879 111.409 Q 211.719 112.249 213.099 112.489 L 225.759 115.069 Q 227.559 115.429 228.729 116.629 Q 229.899 117.829 229.899 120.949 L 229.899 124.429 Q 229.899 127.069 228.099 128.779 Q 226.299 130.489 223.239 130.489 L 208.299 130.489 L 208.299 129.889 L 223.239 129.889 Q 225.999 129.889 227.649 128.359 Q 229.299 126.829 229.299 124.429 L 229.299 120.949 Q 229.299 118.129 228.309 117.079 Q 227.319 116.029 225.639 115.669 L 212.979 113.089 Q 211.419 112.789 210.429 111.859 Q 209.439 110.929 209.439 108.469 L 209.439 103.549 Q 209.439 101.149 211.119 99.619 Q 212.799 98.089 215.559 98.089 Z" transform="matrix(1, 0, 0, 1, 151.529404, 62.543045)" style="fill: rgb(51, 51, 51); white-space: pre;"/>
    <path d="M 80.278 199.849 Q 78.418 201.409 75.538 202.219 Q 72.658 203.029 68.758 203.029 L 48.538 203.029 Q 47.098 203.029 46.438 202.369 Q 45.778 201.709 45.778 200.269 L 45.778 161.389 Q 45.778 160.609 45.988 160.069 Q 46.198 159.529 46.618 159.169 L 54.358 152.629 Q 54.658 152.389 55.168 152.239 Q 55.678 152.089 56.278 152.089 L 76.498 152.089 Q 84.358 152.089 88.108 155.269 Q 91.858 158.449 91.858 164.929 L 91.858 183.649 Q 91.858 186.889 90.898 189.319 Q 89.938 191.749 88.078 193.369 Z M 76.498 195.889 Q 83.998 195.889 87.628 192.889 Q 91.258 189.889 91.258 183.649 L 91.258 164.929 Q 91.258 158.689 87.628 155.689 Q 83.998 152.689 76.498 152.689 L 56.278 152.689 Q 55.138 152.689 54.628 153.199 Q 54.118 153.709 54.118 154.849 L 54.118 193.729 Q 54.118 194.869 54.628 195.379 Q 55.138 195.889 56.278 195.889 Z M 60.658 190.489 L 60.658 158.089 L 75.178 158.089 Q 78.238 158.089 80.128 158.749 Q 82.018 159.409 83.038 160.519 Q 84.058 161.629 84.418 163.159 Q 84.778 164.689 84.778 166.429 L 84.778 182.329 Q 84.778 184.069 84.448 185.569 Q 84.118 187.069 83.098 188.149 Q 82.078 189.229 80.158 189.859 Q 78.238 190.489 75.178 190.489 Z M 75.178 158.689 L 61.258 158.689 L 61.258 189.889 L 75.178 189.889 Q 78.058 189.889 79.828 189.319 Q 81.598 188.749 82.558 187.759 Q 83.518 186.769 83.848 185.359 Q 84.178 183.949 84.178 182.329 L 84.178 166.429 Q 84.178 164.809 83.818 163.369 Q 83.458 161.929 82.498 160.909 Q 81.538 159.889 79.768 159.289 Q 77.998 158.689 75.178 158.689 Z M 67.738 164.149 L 74.878 164.149 Q 76.318 164.149 77.008 164.839 Q 77.698 165.529 77.698 167.029 L 77.698 181.609 Q 77.698 183.109 77.008 183.829 Q 76.318 184.549 74.878 184.549 L 67.738 184.549 Z M 69.358 173.569 Q 69.358 172.789 69.118 172.249 Q 68.878 171.709 68.338 171.469 L 68.338 183.949 L 69.358 183.949 Z" transform="matrix(1, 0, 0, 1, 151.529404, 62.543045)" style="fill: rgb(51, 51, 51); white-space: pre;"/>
    <path d="M 99.291 203.029 Q 97.851 203.029 97.191 202.369 Q 96.531 201.709 96.531 200.269 L 96.531 161.389 Q 96.531 160.609 96.741 160.069 Q 96.951 159.529 97.371 159.169 L 105.111 152.629 Q 105.411 152.389 105.921 152.239 Q 106.431 152.089 107.031 152.089 L 126.171 152.089 Q 132.411 152.089 135.351 154.519 Q 138.291 156.949 138.291 161.869 L 138.291 164.749 Q 138.291 166.849 137.721 168.349 Q 137.151 169.849 136.011 170.749 L 135.831 170.869 Q 139.071 171.589 140.691 173.959 Q 142.311 176.329 142.311 180.529 L 142.311 186.049 Q 142.311 188.749 141.531 190.699 Q 140.751 192.649 139.191 193.969 L 131.451 200.509 Q 129.951 201.769 127.671 202.399 Q 125.391 203.029 122.331 203.029 Z M 130.071 195.889 Q 136.011 195.889 138.861 193.489 Q 141.711 191.089 141.711 186.049 L 141.711 180.529 Q 141.711 176.149 139.851 173.869 Q 137.991 171.589 134.151 171.229 Q 135.951 170.449 136.821 168.859 Q 137.691 167.269 137.691 164.749 L 137.691 161.869 Q 137.691 157.189 134.871 154.939 Q 132.051 152.689 126.171 152.689 L 107.031 152.689 Q 105.891 152.689 105.381 153.199 Q 104.871 153.709 104.871 154.849 L 104.871 193.729 Q 104.871 194.869 105.381 195.379 Q 105.891 195.889 107.031 195.889 Z M 127.671 190.489 L 111.531 190.489 L 111.531 158.089 L 123.711 158.089 Q 126.171 158.089 127.731 158.599 Q 129.291 159.109 130.131 159.979 Q 130.971 160.849 131.271 161.989 Q 131.571 163.129 131.571 164.449 L 131.571 168.289 Q 131.571 170.089 130.941 171.589 Q 130.311 173.089 127.731 173.749 Q 130.191 173.749 131.751 174.259 Q 133.311 174.769 134.151 175.699 Q 134.991 176.629 135.261 177.889 Q 135.531 179.149 135.531 180.649 L 135.531 184.489 Q 135.531 185.809 135.231 186.919 Q 134.931 188.029 134.121 188.809 Q 133.311 189.589 131.751 190.039 Q 130.191 190.489 127.671 190.489 Z M 123.711 158.689 L 112.131 158.689 L 112.131 173.749 L 123.711 173.749 Q 126.171 173.749 127.611 173.299 Q 129.051 172.849 129.801 172.099 Q 130.551 171.349 130.761 170.359 Q 130.971 169.369 130.971 168.289 L 130.971 164.449 Q 130.971 162.049 129.591 160.369 Q 128.211 158.689 123.711 158.689 Z M 118.371 162.889 L 123.471 162.889 Q 124.611 162.889 125.181 163.489 Q 125.751 164.089 125.751 165.289 L 125.751 166.969 Q 125.751 168.169 125.181 168.769 Q 124.611 169.369 123.471 169.369 L 118.371 169.369 Z M 127.731 174.349 L 112.131 174.349 L 112.131 189.889 L 127.671 189.889 Q 132.171 189.889 133.551 188.419 Q 134.931 186.949 134.931 184.489 L 134.931 180.649 Q 134.931 177.949 133.581 176.149 Q 132.231 174.349 127.731 174.349 Z M 118.371 178.609 L 126.171 178.609 Q 127.311 178.609 127.881 179.179 Q 128.451 179.749 128.451 180.949 L 128.451 183.289 Q 128.451 184.489 127.881 185.089 Q 127.311 185.689 126.171 185.689 L 118.371 185.689 Z" transform="matrix(1, 0, 0, 1, 151.529404, 62.543045)" style="fill: rgb(51, 51, 51); white-space: pre;"/>
</svg>
